<?xml version="1.0" encoding="UTF-8"?><svg xmlns="http://www.w3.org/2000/svg" viewBox="0 0 375.23 412.37"><defs><style>.e{fill:#e7ff7f;}.e,.f{stroke-width:4px;}.e,.f,.g{stroke:#e7ff7f;stroke-miterlimit:10;}.f,.g{fill:none;}.g{stroke-width:3px;}.h{letter-spacing:0em;}.i{fill:#fff;font-family:Kanit-SemiBold, Kanit;font-size:15px;}.j{letter-spacing:-.02em;}</style></defs><g id="a"/><g id="b"><g id="c"><g><g id="d"><line class="e" x1="96.81" y1="14.44" x2="276.42" y2="14.44"/><line class="f" x1="186.62" y1="396.87" x2="186.62" y2="15.09"/><line class="e" x1="97.31" y1="206.02" x2="276.92" y2="206.02"/><line class="e" x1="184.63" y1="396.87" x2="277.18" y2="396.87"/></g><g><text class="i" transform="translate(290.21 17.83)"><tspan x="0" y="0">2013 - 2017</tspan></text><rect class="g" x="276.98" y="1.5" width="96.75" height="25.88" rx="5" ry="5"/></g><g><text class="i" transform="translate(290.39 210.46)"><tspan x="0" y="0">2017 - 2021</tspan></text><rect class="g" x="276.98" y="194.13" width="96.75" height="25.88" rx="5" ry="5"/></g><g><text class="i" transform="translate(288.09 401.32)"><tspan x="0" y="0">2021 - p</tspan><tspan class="j" x="52.93" y="0">r</tspan><tspan class="h" x="58.45" y="0">e</tspan><tspan x="66.58" y="0">s.</tspan></text><rect class="g" x="276.98" y="384.99" width="96.75" height="25.88" rx="5" ry="5"/></g><g><text class="i" transform="translate(12.01 18.68)"><tspan x="0" y="0">2010 - 2014</tspan></text><rect class="g" x="1.5" y="2.35" width="96.75" height="25.88" rx="5" ry="5"/></g><g><text class="i" transform="translate(13.18 211.32)"><tspan x="0" y="0">2014 - 2016</tspan></text><rect class="g" x="1.5" y="194.99" width="96.75" height="25.88" rx="5" ry="5"/></g></g></g></g></svg>